<svg id="Layer_1" data-name="Layer 1" xmlns="http://www.w3.org/2000/svg" xmlns:xlink="http://www.w3.org/1999/xlink" viewBox="0 0 772.46 122"><defs><style>.cls-1{fill:#e9481f;}.cls-2{fill-rule:evenodd;fill:url(#linear-gradient);}</style><linearGradient id="linear-gradient" x1="607.08" y1="513.68" x2="889.43" y2="513.68" gradientTransform="matrix(1, 0, 0, -1, 0, 1002)" gradientUnits="userSpaceOnUse"><stop offset="0" stop-color="#e9481f"/><stop offset="1" stop-color="#f0832f"/></linearGradient></defs><path class="cls-1" d="M340.34,479.1a32.29,32.29,0,0,0-21.67,9l.91-6.36c.78-5.71-8.44-5.71-9.22,0l-10.51,75c-.78,5.71,8.44,5.71,9.21,0l4.68-33.36a23.86,23.86,0,0,0,19.08,9c15.05,0,28.94-11.94,31-26.48C366,491,355.4,479.1,340.34,479.1Zm-6,43.48h0c-9.6,0-16.35-7.65-15.05-17,1.17-8.44,8.43-15.44,17-16.74h.13a19.39,19.39,0,0,1,2.73-.26c7.13,0,12.71,4.15,14.53,10.12v.13a16.64,16.64,0,0,1,.52,6.75,20.67,20.67,0,0,1-19.86,17Zm-69.17,9.61c-15.06,0-25.57-11.94-23.62-26.48s16-26.48,31-26.48,25.57,11.94,23.63,26.48-16,26.48-31,26.48Zm6.1-43.48h0a20.68,20.68,0,0,0-19.86,17c-1.3,9.35,5.45,17,15.05,17a20.67,20.67,0,0,0,19.86-17c1.3-9.47-5.45-17-15.05-17Zm217,16.35c1.43-12.2-3.37-23.23-16.35-25.7-11.16-2.07-25.31,3.77-31.67,14.15-6.62,10.77-6.49,25.7,2.34,33.23,9.73,8.17,26.86,5.58,38.8-.39,5.58-2.86,1.95-10.52-3.5-7.66-7.53,3.89-17,5.71-24.53,3.11-5.58-1.94-8.18-6.87-8.44-12.33h38.16a5.17,5.17,0,0,0,5.19-4.41Zm-41.79-4.41h0c.13-.39.26-.65.39-1,3.24-7.27,11.29-11.42,19-11.68,8.82-.26,12.85,5.58,13.37,12.72Zm-19.34,4.54c1.43-12.2-3.37-23.23-16.35-25.7-11.16-2.07-25.31,3.77-31.67,14.15-6.62,10.77-6.49,25.7,2.34,33.23,9.73,8.17,26.86,5.58,38.8-.39,5.58-2.86,1.95-10.52-3.5-7.66-7.53,3.89-17,5.71-24.53,3.11-5.58-1.94-8.18-6.87-8.44-12.33H422a5.41,5.41,0,0,0,5.19-4.41Zm-41.79-4.41h0c.13-.39.26-.65.39-1,3.24-7.27,11.29-11.42,19-11.68,8.82-.26,12.85,5.58,13.37,12.72Zm-153.15-4.15-4.41,30.88c-.78,5.85-10,5.85-9.22,0l4.29-30.37a9.07,9.07,0,0,0-4.42-8.82c-6.1-2.86-18.17-1.56-26.47,7.4l-4.42,31.79c-.77,5.85-10,5.85-9.21,0L189.53,448c.78-5.85,10-5.85,9.22,0l-5.07,35.82c12.33-7.53,26.48-6.75,32.58-2.08.13,0,7.53,4.41,6,14.93Zm-58.27-45c-7.53-9.86-26.35-10.12-38.29-3.25C124.25,455,117.89,470,125.55,479.49c9.34,11.81,31.53,7.66,38.15,22.59,4.81,10.9-6.49,20.63-17.52,20.89-8.69.13-19-2.72-24.14-9-3.5-4.16-10.77,2.07-7.4,6.23,7.66,9.21,23.37,13.36,36.47,10.9,12.2-2.21,23.37-13.37,23-25.18-.39-14.8-14.28-21.93-27.13-25.83-9.34-2.85-22.45-9.21-11.42-21,7.66-8.31,25.05-9.35,31.15-1.3C169.93,462.23,177.33,455.87,174,451.59Z" transform="translate(-113.77 -439)"/><path class="cls-2" d="M627.69,439h160l-17.39,18h-160l17.39-18Zm-70.86,98.51L547.48,513l19.21-19.86,16.87,44.52H556.83ZM610.17,439l-41.4,42.83-7.92-20.9L582,439ZM537.1,485.46l-50.23,52.05H515l49.32-51-18-47.5H519.58l17.52,46.46Zm48.28,52.05H602l6.88-22.71c15.84,0,18.17-.78,24.79-3.64,7.53-3.11,17.26-14.15,17.26-24.92,0-10.25-8.3-15.05-22.45-15.05h-23.1l-20,66.32Zm237.9-.39a39.41,39.41,0,0,1-23-4.28c3.37-2.86,5.58-6.88,6.36-13,2.85,2.33,9.21,4.54,13.76,4.54,4.15.13,11.68-1.43,12.59-6.23s-8.44-7-14.15-10c-4.67-2.47-10.12-7.92-10.25-13.5-.26-5.84,1.81-10.38,6.23-14.93,4.15-4.41,11.68-7.78,20.11-8.43,10.64-.91,19.73,1.81,22.84,4.41l-9.34,10.9c-4-2.85-10.64-3.24-15.57-1.94-3.38.77-7.53,4.15-7.27,7.91.26,4.41,4.8,5.06,11.16,8.57C840,503,848.72,507,848.72,514.93c0,4.8-2,11.81-7.27,15.83-7,5.06-12.07,5.45-18.17,6.36Zm-52.3.39c6.23,0,14.53-.91,21.28-5.45,5.32-3.64,8.18-11.81,7.66-17.13-.78-7.92-7.4-11-11.94-13.5-6.49-3.51-9.6-4.16-9.86-8.57-.26-3.76,3.89-7,7.13-7.92,5.07-1.29,9.87-1.55,16.49,2.86a20.46,20.46,0,0,1,7.39-11.94c-3-2.6-12.45-4.54-19.85-4.54-8.44,0-14.67,3.11-20.12,7.39-5.06,3.9-8.31,12.46-7.14,18.05,1.17,5.32,6.49,10.9,11.42,13.23,5.71,2.73,12.59,4.81,11.42,9.61s-7.91,6.1-12.07,6a100.15,100.15,0,0,1-15.7-1.56l-4.28,12.72a141.63,141.63,0,0,0,18.17.78Zm-51.4-13.63h26.61l-3.51,13.63H699.21l19.46-66.32h43.48l-3.89,11.94H731.39l-4.54,14.53h27.9L750.6,509.6h-27l-4,14.28ZM640.8,537.51l20-66.32h23.1c14.15,0,22.71,4.54,22.32,15.05s-8.3,22.07-23.62,25.44l12.33,25.83H675.71L664.29,512.2l-7.66,25.31ZM673.12,483l-5.84,19.21c6.75,0,11-.13,14.14-1.56,3.64-1.56,7.66-5.71,7.92-10.51.13-4-2.46-7-9.86-7h-6.36Zm-54.9.65h5.71c6,0,9.47,2.07,9.47,6.36,0,4.54-4.15,9.21-7.27,10.51-2.85,1.17-6.74,1.56-13.49,1.56l5.58-18.43ZM794,439l-17.39,18h33l17.27-18ZM833,439h26.6l-17.39,18H815.62L833,439Zm32.7,0-17.39,18h20.38l17.52-18Z" transform="translate(-113.77 -439)"/></svg>